<mxfile host="app.diagrams.net" agent="Mozilla/5.0 (Macintosh; Intel Mac OS X 10_15_7) AppleWebKit/605.1.15 (KHTML, like Gecko) Version/18.0 Safari/605.1.15" version="24.7.12">
  <diagram id="C5RBs43oDa-KdzZeNtuy" name="Page-1">
    <mxGraphModel dx="855" dy="1003" grid="1" gridSize="10" guides="1" tooltips="1" connect="1" arrows="1" fold="1" page="1" pageScale="1" pageWidth="827" pageHeight="1169" math="0" shadow="0">
      <root>
        <mxCell id="WIyWlLk6GJQsqaUBKTNV-0" />
        <mxCell id="WIyWlLk6GJQsqaUBKTNV-1" parent="WIyWlLk6GJQsqaUBKTNV-0" />
        <mxCell id="9Lo3OeUdM9abnCmlQLZo-2" style="edgeStyle=orthogonalEdgeStyle;rounded=0;orthogonalLoop=1;jettySize=auto;html=1;entryX=0.5;entryY=0;entryDx=0;entryDy=0;" edge="1" parent="WIyWlLk6GJQsqaUBKTNV-1" source="9Lo3OeUdM9abnCmlQLZo-0" target="9Lo3OeUdM9abnCmlQLZo-1">
          <mxGeometry relative="1" as="geometry" />
        </mxCell>
        <mxCell id="9Lo3OeUdM9abnCmlQLZo-0" value="start" style="ellipse;whiteSpace=wrap;html=1;" vertex="1" parent="WIyWlLk6GJQsqaUBKTNV-1">
          <mxGeometry x="60" y="30" width="120" height="80" as="geometry" />
        </mxCell>
        <mxCell id="9Lo3OeUdM9abnCmlQLZo-4" value="" style="edgeStyle=orthogonalEdgeStyle;rounded=0;orthogonalLoop=1;jettySize=auto;html=1;" edge="1" parent="WIyWlLk6GJQsqaUBKTNV-1" source="9Lo3OeUdM9abnCmlQLZo-1" target="9Lo3OeUdM9abnCmlQLZo-3">
          <mxGeometry relative="1" as="geometry" />
        </mxCell>
        <mxCell id="9Lo3OeUdM9abnCmlQLZo-1" value="set int START = 100" style="rounded=0;whiteSpace=wrap;html=1;" vertex="1" parent="WIyWlLk6GJQsqaUBKTNV-1">
          <mxGeometry x="60" y="160" width="120" height="60" as="geometry" />
        </mxCell>
        <mxCell id="9Lo3OeUdM9abnCmlQLZo-6" value="" style="edgeStyle=orthogonalEdgeStyle;rounded=0;orthogonalLoop=1;jettySize=auto;html=1;" edge="1" parent="WIyWlLk6GJQsqaUBKTNV-1" source="9Lo3OeUdM9abnCmlQLZo-3" target="9Lo3OeUdM9abnCmlQLZo-5">
          <mxGeometry relative="1" as="geometry" />
        </mxCell>
        <mxCell id="9Lo3OeUdM9abnCmlQLZo-3" value="set int START = 100" style="rounded=0;whiteSpace=wrap;html=1;" vertex="1" parent="WIyWlLk6GJQsqaUBKTNV-1">
          <mxGeometry x="60" y="250" width="120" height="60" as="geometry" />
        </mxCell>
        <mxCell id="9Lo3OeUdM9abnCmlQLZo-5" value="set int COUNT = START" style="rounded=0;whiteSpace=wrap;html=1;" vertex="1" parent="WIyWlLk6GJQsqaUBKTNV-1">
          <mxGeometry x="60" y="340" width="120" height="60" as="geometry" />
        </mxCell>
        <mxCell id="9Lo3OeUdM9abnCmlQLZo-11" style="edgeStyle=orthogonalEdgeStyle;rounded=0;orthogonalLoop=1;jettySize=auto;html=1;entryX=0.5;entryY=0;entryDx=0;entryDy=0;" edge="1" parent="WIyWlLk6GJQsqaUBKTNV-1" source="9Lo3OeUdM9abnCmlQLZo-7" target="9Lo3OeUdM9abnCmlQLZo-8">
          <mxGeometry relative="1" as="geometry" />
        </mxCell>
        <mxCell id="9Lo3OeUdM9abnCmlQLZo-13" style="edgeStyle=orthogonalEdgeStyle;rounded=0;orthogonalLoop=1;jettySize=auto;html=1;entryX=0;entryY=0.5;entryDx=0;entryDy=0;" edge="1" parent="WIyWlLk6GJQsqaUBKTNV-1" source="9Lo3OeUdM9abnCmlQLZo-7" target="9Lo3OeUdM9abnCmlQLZo-14">
          <mxGeometry relative="1" as="geometry">
            <mxPoint x="190" y="1030" as="targetPoint" />
            <Array as="points">
              <mxPoint x="40" y="555" />
              <mxPoint x="40" y="930" />
            </Array>
          </mxGeometry>
        </mxCell>
        <mxCell id="9Lo3OeUdM9abnCmlQLZo-7" value="for count &amp;gt; (STOP - 1)" style="strokeWidth=2;html=1;shape=mxgraph.flowchart.decision;whiteSpace=wrap;" vertex="1" parent="WIyWlLk6GJQsqaUBKTNV-1">
          <mxGeometry x="120" y="490" width="170" height="130" as="geometry" />
        </mxCell>
        <mxCell id="9Lo3OeUdM9abnCmlQLZo-10" value="" style="edgeStyle=orthogonalEdgeStyle;rounded=0;orthogonalLoop=1;jettySize=auto;html=1;" edge="1" parent="WIyWlLk6GJQsqaUBKTNV-1" source="9Lo3OeUdM9abnCmlQLZo-8" target="9Lo3OeUdM9abnCmlQLZo-9">
          <mxGeometry relative="1" as="geometry" />
        </mxCell>
        <mxCell id="9Lo3OeUdM9abnCmlQLZo-8" value="output count" style="rounded=0;whiteSpace=wrap;html=1;" vertex="1" parent="WIyWlLk6GJQsqaUBKTNV-1">
          <mxGeometry x="132.5" y="670" width="145" height="60" as="geometry" />
        </mxCell>
        <mxCell id="9Lo3OeUdM9abnCmlQLZo-9" value="count = count + step" style="rounded=0;whiteSpace=wrap;html=1;" vertex="1" parent="WIyWlLk6GJQsqaUBKTNV-1">
          <mxGeometry x="132.5" y="810" width="145" height="60" as="geometry" />
        </mxCell>
        <mxCell id="9Lo3OeUdM9abnCmlQLZo-12" style="edgeStyle=orthogonalEdgeStyle;rounded=0;orthogonalLoop=1;jettySize=auto;html=1;entryX=1;entryY=0.5;entryDx=0;entryDy=0;entryPerimeter=0;" edge="1" parent="WIyWlLk6GJQsqaUBKTNV-1" source="9Lo3OeUdM9abnCmlQLZo-9" target="9Lo3OeUdM9abnCmlQLZo-7">
          <mxGeometry relative="1" as="geometry">
            <Array as="points">
              <mxPoint x="380" y="850" />
              <mxPoint x="380" y="555" />
            </Array>
          </mxGeometry>
        </mxCell>
        <mxCell id="9Lo3OeUdM9abnCmlQLZo-17" value="" style="edgeStyle=orthogonalEdgeStyle;rounded=0;orthogonalLoop=1;jettySize=auto;html=1;" edge="1" parent="WIyWlLk6GJQsqaUBKTNV-1" source="9Lo3OeUdM9abnCmlQLZo-14" target="9Lo3OeUdM9abnCmlQLZo-16">
          <mxGeometry relative="1" as="geometry" />
        </mxCell>
        <mxCell id="9Lo3OeUdM9abnCmlQLZo-14" value="output &quot;Lift Off!&quot;" style="shape=parallelogram;perimeter=parallelogramPerimeter;whiteSpace=wrap;html=1;fixedSize=1;" vertex="1" parent="WIyWlLk6GJQsqaUBKTNV-1">
          <mxGeometry x="150" y="900" width="120" height="60" as="geometry" />
        </mxCell>
        <mxCell id="9Lo3OeUdM9abnCmlQLZo-19" style="edgeStyle=orthogonalEdgeStyle;rounded=0;orthogonalLoop=1;jettySize=auto;html=1;entryX=0.5;entryY=0;entryDx=0;entryDy=0;" edge="1" parent="WIyWlLk6GJQsqaUBKTNV-1" source="9Lo3OeUdM9abnCmlQLZo-16" target="9Lo3OeUdM9abnCmlQLZo-18">
          <mxGeometry relative="1" as="geometry" />
        </mxCell>
        <mxCell id="9Lo3OeUdM9abnCmlQLZo-16" value="output &quot;Thank you for using our countdown program.&quot;" style="shape=parallelogram;perimeter=parallelogramPerimeter;whiteSpace=wrap;html=1;fixedSize=1;" vertex="1" parent="WIyWlLk6GJQsqaUBKTNV-1">
          <mxGeometry x="80" y="990" width="260" height="60" as="geometry" />
        </mxCell>
        <mxCell id="9Lo3OeUdM9abnCmlQLZo-18" value="stop" style="ellipse;whiteSpace=wrap;html=1;" vertex="1" parent="WIyWlLk6GJQsqaUBKTNV-1">
          <mxGeometry x="166" y="1080" width="88" height="50" as="geometry" />
        </mxCell>
      </root>
    </mxGraphModel>
  </diagram>
</mxfile>
